<svg width="40" height="40" viewBox="0 0 40 40" fill="none" xmlns="http://www.w3.org/2000/svg">
<path fill-rule="evenodd" clip-rule="evenodd" d="M26.2516 18.6568C22.7796 16.5953 16.9748 16.3783 13.6655 17.409C13.123 17.5718 12.5805 17.2463 12.4178 16.758C12.255 16.2155 12.5805 15.673 13.0688 15.5103C16.9206 14.371 23.2678 14.588 27.2823 16.975C27.7706 17.2463 27.9333 17.8973 27.6621 18.3855C27.3908 18.7653 26.7398 18.928 26.2516 18.6568ZM26.1429 21.6944C25.8717 22.0742 25.3834 22.2369 25.0037 21.9657C22.0742 20.1754 17.6257 19.6329 14.2079 20.7179C13.7739 20.8264 13.2857 20.6094 13.1772 20.1754C13.0687 19.7414 13.2857 19.2532 13.7197 19.1447C17.6799 17.9512 22.5624 18.5479 25.9259 20.6094C26.2514 20.7722 26.4142 21.3147 26.1429 21.6944ZM24.841 24.6784C24.624 25.0039 24.2443 25.1124 23.9187 24.8954C21.369 23.3222 18.1682 22.9967 14.3707 23.8647C13.991 23.9732 13.6655 23.7019 13.557 23.3764C13.4485 22.9967 13.7197 22.6712 14.0452 22.5627C18.1682 21.6404 21.7487 22.0202 24.5698 23.7562C24.9495 23.9189 25.0038 24.3529 24.841 24.6784ZM19.85 9C13.8825 9 9 13.8825 9 19.85C9 25.8175 13.8825 30.7 19.85 30.7C25.8175 30.7 30.7 25.8175 30.7 19.85C30.7 13.8825 25.8718 9 19.85 9Z" fill="#0E0E0E"/>
</svg>
