<svg width="40" height="40" viewBox="0 0 40 40" fill="none" xmlns="http://www.w3.org/2000/svg">
<path d="M20.4249 26.6963L16.4889 26.6235C15.2144 26.5981 13.9368 26.6488 12.6874 26.3858C10.7867 25.9929 10.6521 24.0663 10.5112 22.4502C10.317 20.1783 10.3922 17.8651 10.7586 15.6121C10.9654 14.3479 11.7794 13.5936 13.0381 13.5115C17.2873 13.2136 21.5648 13.2489 25.8046 13.3879C26.2524 13.4006 26.7032 13.4703 27.1448 13.5496C29.3243 13.9362 29.3774 16.1194 29.5187 17.9573C29.6596 19.8141 29.6001 21.6805 29.3308 23.5247C29.1147 25.0517 28.7014 26.3322 26.9569 26.4558C24.7711 26.6175 22.6356 26.7476 20.4437 26.7062C20.4438 26.6963 20.4312 26.6963 20.4249 26.6963ZM18.1109 22.8305C19.758 21.8735 21.3737 20.9324 23.0115 19.9818C21.3613 19.0248 19.7486 18.0837 18.1109 17.1331V22.8305Z" fill="#1B1B1B"/>
</svg>
